<?xml version="1.0" encoding="utf-8"?><svg xmlns="http://www.w3.org/2000/svg" xmlns:xlink="http://www.w3.org/1999/xlink"><symbol viewBox="0 0 41 30" id="arrow-left" xmlns="http://www.w3.org/2000/svg"><path d="M.504 28.121a.5.5 0 00.402.582l4.427.81a.5.5 0 00.18-.983l-3.935-.72.72-3.935a.5.5 0 10-.983-.18l-.81 4.426zM40.295.466L.712 27.8l.568.823L40.864 1.289l-.569-.823z"/></symbol><symbol id="arrow-left-short-icon" viewBox="0 0 512 512" xml:space="preserve" xmlns="http://www.w3.org/2000/svg"><style>.bst0{fill-rule:evenodd;clip-rule:evenodd}</style><path class="bst0" d="M246.7 41.4c12.5 12.5 12.5 32.7 0 45.2L77.3 256l169.4 169.4c12.5 12.5 12.5 32.8 0 45.3s-32.8 12.5-45.3 0l-192-192c-12.5-12.5-12.5-32.7-.1-45.2h.1l192-192c12.5-12.6 32.7-12.6 45.3-.1z"/><path class="bst0" d="M32 256c0-17.7 14.3-32 32-32h416c17.7 0 32 14.3 32 32s-14.3 32-32 32H64c-17.6 0-32-14.3-32-32z"/></symbol><symbol viewBox="0 0 41 30" id="arrow-right" xmlns="http://www.w3.org/2000/svg"><path d="M40.51 1.894a.5.5 0 00-.401-.582l-4.426-.81a.5.5 0 10-.18.983l3.934.72-.72 3.935a.5.5 0 00.983.18l.81-4.426zM.72 29.549L40.303 2.215l-.568-.823L.15 28.726l.569.823z"/></symbol><symbol id="arrow-right-short-icon" viewBox="0 0 512 512" xml:space="preserve" xmlns="http://www.w3.org/2000/svg"><style>.dst0{fill-rule:evenodd;clip-rule:evenodd}</style><path class="dst0" d="M265.3 41.4c12.5-12.5 32.7-12.5 45.2-.1v.1l192 192c12.5 12.5 12.5 32.7.1 45.2h-.1l-192 192c-12.5 12.5-32.8 12.5-45.3 0s-12.5-32.8 0-45.3L434.7 256 265.3 86.7c-12.5-12.5-12.5-32.8 0-45.3z"/><path class="dst0" d="M0 256c0-17.7 14.3-32 32-32h416c17.7 0 32 14.3 32 32s-14.3 32-32 32H32c-17.7 0-32-14.3-32-32z"/></symbol><symbol viewBox="0 0 32 30" id="arrow-short-left" xmlns="http://www.w3.org/2000/svg"><path d="M.836 13.418c-.768.778-.747 2.045.047 2.828l12.939 12.77c.794.785 2.06.789 2.828.01.768-.777.747-2.044-.047-2.827l-11.5-11.352L16.227 3.574c.768-.778.747-2.044-.047-2.828-.794-.783-2.06-.788-2.828-.01L.836 13.418zm30.512-.479L2.24 12.837l.066 4 29.107.101-.066-3.999z"/></symbol><symbol viewBox="0 0 32 30" id="arrow-short-right" xmlns="http://www.w3.org/2000/svg"><path d="M31.293 16.54c.768-.777.747-2.044-.047-2.827L18.307.943c-.794-.784-2.06-.789-2.828-.01-.768.778-.747 2.044.047 2.827l11.5 11.352L15.9 26.385c-.768.778-.747 2.044.047 2.828.794.783 2.06.788 2.829.01L31.293 16.54zM.78 17.02l29.107.102-.066-4-29.107-.101.066 3.999z"/></symbol><symbol viewBox="0 0 39 17" id="arrow-video" xmlns="http://www.w3.org/2000/svg"><path d="M19.607 1.112l-.027-.5.027.5zm17.11 9.02a.5.5 0 00.61-.359l1.126-4.357a.5.5 0 10-.968-.25l-1.002 3.873-3.872-1.002a.5.5 0 00-.25.968l4.356 1.127zM1.314 16.705l.459.199v-.002a1.906 1.906 0 00.017-.036c.011-.027.03-.067.054-.12.049-.107.122-.264.22-.465a36.943 36.943 0 014.35-6.817c3.062-3.778 7.517-7.544 13.22-7.853L19.58.612C13.455.945 8.764 4.976 5.636 8.834a37.937 37.937 0 00-4.47 7.009 22.607 22.607 0 00-.31.66v.003H.854l.459.2zm18.32-15.094c5.77-.313 9.962 1.766 12.718 3.922 1.38 1.08 2.4 2.179 3.073 3.006.336.414.585.759.75.998a9.538 9.538 0 01.225.345l.01.016a.074.074 0 01.002.004l.43-.254.43-.254v-.001l-.001-.002-.004-.007a2.849 2.849 0 00-.066-.107 10.467 10.467 0 00-.202-.305c-.178-.26-.443-.627-.799-1.064a20.382 20.382 0 00-3.231-3.163C30.064 2.473 25.639.284 19.58.612l.054.999z"/></symbol><symbol viewBox="0 0 15 12" id="check" xmlns="http://www.w3.org/2000/svg"><path fill-rule="evenodd" clip-rule="evenodd" d="M.075 5.321L1.49 3.907l4.576 4.576 7.51-7.511 1.415 1.414-8.925 8.925-5.99-5.99z"/></symbol><symbol viewBox="0 0 288.941 288.941" id="checked-ico" xmlns="http://www.w3.org/2000/svg"><path d="M285.377 46.368c-4.74-4.704-12.439-4.704-17.179 0L96.309 217.114 20.734 142.61c-4.74-4.704-12.439-4.704-17.179 0s-4.74 12.319 0 17.011l84.2 82.997c4.692 4.644 12.499 4.644 17.191 0l180.43-179.239a11.93 11.93 0 00.001-17.011c-4.74-4.704 4.752 4.692 0 0z"/></symbol><symbol viewBox="0 0 29 51" id="chevron-left" xmlns="http://www.w3.org/2000/svg"><path d="M26.83 2.354L3.458 25.599l23.37 23.246"/></symbol><symbol viewBox="0 0 20 20" id="chevron-left1" xmlns="http://www.w3.org/2000/svg"><path d="M14 20a.5.5 0 00.354-.853l-8.646-8.646 8.646-8.646a.5.5 0 00-.707-.707l-9 9a.5.5 0 000 .707l9 9a.498.498 0 00.354.146z"/></symbol><symbol viewBox="0 0 25 25" id="close" xmlns="http://www.w3.org/2000/svg"><path d="M3.966 3.567L21.401 21.78m-17.435 0L21.401 3.568"/></symbol><symbol viewBox="0 0 50 50" id="close-icon" xmlns="http://www.w3.org/2000/svg"><path d="M9.016 40.837a1.001 1.001 0 001.415-.001l14.292-14.309 14.292 14.309a1 1 0 001.416-1.413L26.153 25.129 40.43 10.836a1 1 0 10-1.415-1.413L24.722 23.732 10.43 9.423a1 1 0 10-1.415 1.413l14.276 14.293L9.015 39.423a1 1 0 00.001 1.414z"/></symbol><symbol viewBox="0 0 124 124" id="facebook" xmlns="http://www.w3.org/2000/svg"><path d="M50.1 62.4v44.4c0 .6.5 1.2 1.2 1.2h16.5c.6 0 1.2-.5 1.2-1.2V61.6h11.9c.6 0 1.1-.5 1.2-1.1l1-13.5c.1-.7-.5-1.3-1.2-1.3h-13v-9.6c0-2.3 1.8-4.1 4.1-4.1h9.2c.6 0 1.2-.5 1.2-1.2V17.3c0-.6-.5-1.2-1.2-1.2H66.6c-9.1 0-16.5 7.4-16.5 16.5v13.1h-8.2c-.6 0-1.2.5-1.2 1.2v13.6c0 .6.5 1.2 1.2 1.2h8.2v.7z" fill-rule="evenodd" clip-rule="evenodd"/></symbol><symbol viewBox="0 0 22 22" id="fb" xmlns="http://www.w3.org/2000/svg"><g clip-path="url(#oclip0_588_11442)"><path d="M14.664 3.653h2.008V.155C16.326.107 15.134 0 13.746 0c-2.895 0-4.88 1.821-4.88 5.17v3.08H5.672v3.91h3.196V22h3.918v-9.839h3.066l.487-3.91h-3.554V5.557c0-1.13.305-1.904 1.88-1.904z"/></g><defs><clipPath id="oclip0_588_11442"><path d="M0 0h22v22H0z"/></clipPath></defs></symbol><symbol viewBox="0 0 30 30" id="hands" xmlns="http://www.w3.org/2000/svg"><path d="M14.392 22.04c-.116.087-.237.168-.349.261-.258.219-.522.43-.763.667-.777.763-1.721.095-1.824-.647-.045-.317.038-.653.061-.969-.426.258-.945.412-1.449.059-.494-.35-.58-.865-.428-1.439-.166.092-.311.186-.466.256-.727.322-1.484-.16-1.538-.958-.06-.884.348-1.301 1.142-1.686.506-.245 1.301.277 1.419.898.048.25.008.517.008.776.164-.151.344-.325.531-.489.278-.244.558-.49.845-.724.266-.217.583-.304.922-.294.793.021 1.259.73.972 1.475-.044.112-.102.219-.118.359.111-.1.224-.197.334-.297.439-.4.962-.455 1.396-.148.476.336.679.953.455 1.461-.088.199-.236.373-.356.56-.054.082-.106.164-.16.243l-.634.636m.068-2.694c-.142.075-.295.135-.421.231-.182.141-.347.305-.514.464-.471.449-.955.886-1.404 1.357-.374.393-.357.916-.011 1.266.242.242.521.275.769.059a53.08 53.08 0 001.629-1.479c.224-.216.424-.464.59-.726.327-.52-.204-1.154-.638-1.172m-4.322.968c.124.252.206.506.357.709.201.27.479.271.726.045.339-.313.682-.623 1.003-.954.206-.21.403-.438.561-.688.253-.4.166-.892-.168-1.162-.208-.17-.43-.199-.604-.039-.522.479-1.043.957-1.538 1.465-.151.152-.216.391-.337.624m-2.059-1.16c0-.01-.004.049.001.104.043.495.495.763.941.556.345-.16.586-.422.726-.771.131-.331.029-.661-.259-.875-.364-.27-.483-.27-.853.005l-.18.13c-.263.195-.4.452-.376.851"/><path d="M14.393 22.04l.632-.636c.473-.428.981-.353 1.325-.084.479.375.641.938.402 1.477-.294.667-.792 1.17-1.359 1.605-.27.205-.594.181-.899.074-.694-.24-.996-1.146-.588-1.756.155-.231.324-.452.487-.68m.472 2.085c.11-.044.252-.059.326-.137.36-.381.713-.771 1.045-1.174a.902.902 0 00.168-.455c.037-.342-.159-.575-.432-.745a.42.42 0 00-.564.073c-.395.429-.798.854-1.143 1.321-.305.419.068 1.066.6 1.117"/><path d="M22.993 19.261c.177.423-.013.968-.425 1.277-.313.231-.68.325-1.049.297-.281-.021-.435.089-.564.298-.148.238-.285.483-.449.709-.326.453-.666.561-1.208.411-.418-.116-.446-.101-.579.313-.303.942-.883 1.271-1.859 1.052.078-.396.207-.521.59-.511.268.006.455-.107.607-.313a1.184 1.184 0 00-.033-1.467c-.486-.604-.979-1.2-1.474-1.797-.169-.205-.211-.436-.175-.7.232-.028.38.092.512.246.545.649 1.09 1.302 1.643 1.946.16.188.324.377.519.526.444.345.949.24 1.252-.233.291-.452.265-.935-.116-1.418-.373-.474-.77-.926-1.158-1.385-.183-.214-.383-.412-.553-.635a1.09 1.09 0 01-.174-.418c-.016-.076.047-.229.098-.24a.392.392 0 01.289.076c.102.079.162.205.25.305.604.707 1.205 1.42 1.826 2.115.165.188.381.34.596.473.352.219.648.166.931-.139.155-.17.289-.359.44-.533.075-.088.168-.164.263-.255"/><path d="M22.993 19.261c.177.423-.013.968-.425 1.277-.313.231-.68.325-1.049.297-.281-.021-.435.089-.564.298-.148.238-.285.483-.449.709-.326.453-.666.561-1.208.411-.418-.116-.446-.101-.579.313-.303.942-.883 1.271-1.859 1.052.078-.396.207-.521.59-.511.268.006.455-.107.607-.313a1.184 1.184 0 00-.033-1.467c-.486-.604-.979-1.2-1.474-1.797-.169-.205-.211-.436-.175-.7.232-.028.38.092.512.246.545.649 1.09 1.302 1.643 1.946.16.188.324.377.519.526.444.345.949.24 1.252-.233.291-.452.265-.935-.116-1.418-.373-.474-.77-.926-1.158-1.385-.183-.214-.383-.412-.553-.635a1.09 1.09 0 01-.174-.418c-.016-.076.047-.229.098-.24a.392.392 0 01.289.076c.102.079.162.205.25.305.604.707 1.205 1.42 1.826 2.115.165.188.381.34.596.473.352.219.648.166.931-.139.155-.17.289-.359.44-.533.075-.088.168-.164.263-.255zM5.9 15.995c-.369.606-.824.462-1.301.212a5.371 5.371 0 00-.675-.303c-.566-.196-.913-.506-.609-1.387.341-.99.715-1.966 1.075-2.947.419-1.144.837-2.287 1.258-3.43.048-.132.098-.266.163-.388.176-.328.47-.472.828-.375.444.121.884.265 1.318.414.252.088.479.229.577.502.002.009.004.02.01.021.468.211.724.738 1.277.832.39.065.739-.021 1.07-.198.442-.237.859-.528 1.314-.735a4.88 4.88 0 011.192-.365c.461-.08.865.11 1.224.434a.53.53 0 01-.565.189c-.67-.154-1.272.024-1.849.346-.389.216-.76.467-1.158.66-.782.381-1.543.347-2.254-.193-.281-.216-.346-.195-.467.142l-1.832 5.139c-.068.193-.131.391-.209.58-.127.314-.049.572.182.811.441.456.876.919 1.311 1.38.202.215.181.285-.067.521-.197.188-.307.054-.418-.088-.372-.473-.739-.947-1.11-1.422-.081-.106-.166-.206-.285-.352m-2.136-.934c.062.066.128.183.226.229.316.158.646.291.969.435.311.139.398.112.568-.188.056-.101.091-.211.127-.32.291-.883.561-1.772.874-2.647.446-1.246.925-2.481 1.386-3.723.135-.363.114-.41-.254-.544-.294-.106-.598-.184-.895-.28-.395-.127-.412-.121-.554.268l-2.347 6.42c-.032.092-.053.187-.1.35"/><path d="M5.9 15.995c-.369.606-.824.462-1.301.212a5.371 5.371 0 00-.675-.303c-.566-.196-.913-.506-.609-1.387.341-.99.715-1.966 1.075-2.947.419-1.144.837-2.287 1.258-3.43.048-.132.098-.266.163-.388.176-.328.47-.472.828-.375.444.121.884.265 1.318.414.252.088.479.229.577.502.002.009.004.02.01.021.468.211.724.738 1.277.832.39.065.739-.021 1.07-.198.442-.237.859-.528 1.314-.735a4.88 4.88 0 011.192-.365c.461-.08.865.11 1.224.434a.53.53 0 01-.565.189c-.67-.154-1.272.024-1.849.346-.389.216-.76.467-1.158.66-.782.381-1.543.347-2.254-.193-.281-.216-.346-.195-.467.142l-1.832 5.139c-.068.193-.131.391-.209.58-.127.314-.049.572.182.811.441.456.876.919 1.311 1.38.202.215.181.285-.067.521-.197.188-.307.054-.418-.088-.372-.473-.739-.947-1.11-1.422-.081-.106-.166-.206-.285-.352zm-2.136-.934c.062.066.128.183.226.229.316.158.646.291.969.435.311.139.398.112.568-.188.056-.101.091-.211.127-.32.291-.883.561-1.772.874-2.647.446-1.246.925-2.481 1.386-3.723.135-.363.114-.41-.254-.544-.294-.106-.598-.184-.895-.28-.395-.127-.412-.121-.554.268l-2.347 6.42c-.032.092-.053.187-.1.35z"/><path d="M27.713 14.65a2.523 2.523 0 00-.18-.457c-.764-1.543-1.528-3.082-2.29-4.625-.259-.523-.497-1.059-.761-1.58-.229-.457-.682-.67-1.082-.471-.514.256-1.008.557-1.5.854-.189.114-.277.31-.293.544a.495.495 0 01-.151.298c-.293.281-.647.302-.981.113a6.696 6.696 0 01-1.018-.69c-.688-.58-1.417-1.025-2.352-.935-.612-.095-1.129.129-1.626.425-1.77 1.053-3.37 2.336-4.964 3.629-.505.409-.609 1.196-.279 1.76a.962.962 0 00.657.479c.443.094.856-.002 1.24-.215.619-.343 1.227-.707 1.84-1.062.578-.332 1.157-.662 1.735-.996.192-.111.358-.087.506.082.065.073.138.141.202.217.563.668 1.113 1.347 1.688 2.004 1.387 1.591 2.783 3.17 4.178 4.752.222.252.425.248.672-.006.676-.698 1.355-1.393 2.018-2.104.184-.196.342-.344.631-.274.08.021.185-.011.263-.049.495-.236 1.002-.461 1.479-.732.355-.205.48-.552.368-.961m-3.078 1.525c-.478.501-.958.999-1.438 1.497l-.573.594c-.543-.608-1.082-1.199-1.604-1.802-1.32-1.526-2.635-3.058-3.953-4.587-.14-.162-.279-.324-.43-.477-.367-.369-.692-.435-1.164-.209-.326.158-.64.342-.953.522-.861.5-1.718 1.009-2.582 1.507-.14.082-.296.145-.453.188-.262.07-.545.105-.717-.16a.797.797 0 01-.018-.867.824.824 0 01.212-.236c1.437-1.131 2.84-2.309 4.411-3.256.113-.07.227-.137.333-.215.892-.654 2.368-.498 3.101.191.269.254.568.477.873.688.789.553 1.277.588 2.131.17.021.031.045.063.063.1.963 1.966 1.923 3.934 2.891 5.896.098.207-.011.33-.13.456m2.364-1.032c-.412.222-.834.424-1.255.627-.201.099-.327.035-.376-.192-.022-.11-.077-.216-.126-.319-.903-1.892-1.807-3.783-2.713-5.675a4.224 4.224 0 00-.256-.447c-.097-.149-.104-.268.072-.366.379-.213.752-.439 1.135-.646.268-.145.369-.104.506.178.578 1.191 1.148 2.385 1.731 3.574.445.908.905 1.811 1.356 2.715.044.087.07.182.121.313-.057.072-.108.191-.195.238"/><path d="M27.713 14.65a2.523 2.523 0 00-.18-.457c-.764-1.543-1.528-3.082-2.29-4.625-.259-.523-.497-1.059-.761-1.58-.229-.457-.682-.67-1.082-.471-.514.256-1.008.557-1.5.854-.189.114-.277.31-.293.544a.495.495 0 01-.151.298c-.293.281-.647.302-.981.113a6.696 6.696 0 01-1.018-.69c-.688-.58-1.417-1.025-2.352-.935-.612-.095-1.129.129-1.626.425-1.77 1.053-3.37 2.336-4.964 3.629-.505.409-.609 1.196-.279 1.76a.962.962 0 00.657.479c.443.094.856-.002 1.24-.215.619-.343 1.227-.707 1.84-1.062.578-.332 1.157-.662 1.735-.996.192-.111.358-.087.506.082.065.073.138.141.202.217.563.668 1.113 1.347 1.688 2.004 1.387 1.591 2.783 3.17 4.178 4.752.222.252.425.248.672-.006.676-.698 1.355-1.393 2.018-2.104.184-.196.342-.344.631-.274.08.021.185-.011.263-.049.495-.236 1.002-.461 1.479-.732.355-.205.48-.552.368-.961zm-3.078 1.525c-.478.501-.958.999-1.438 1.497l-.573.594c-.543-.608-1.082-1.199-1.604-1.802-1.32-1.526-2.635-3.058-3.953-4.587-.14-.162-.279-.324-.43-.477-.367-.369-.692-.435-1.164-.209-.326.158-.64.342-.953.522-.861.5-1.718 1.009-2.582 1.507-.14.082-.296.145-.453.188-.262.07-.545.105-.717-.16a.797.797 0 01-.018-.867.824.824 0 01.212-.236c1.437-1.131 2.84-2.309 4.411-3.256.113-.07.227-.137.333-.215.892-.654 2.368-.498 3.101.191.269.254.568.477.873.688.789.553 1.277.588 2.131.17.021.031.045.063.063.1.963 1.966 1.923 3.934 2.891 5.896.098.207-.011.33-.13.456zm2.364-1.032c-.412.222-.834.424-1.255.627-.201.099-.327.035-.376-.192-.022-.11-.077-.216-.126-.319-.903-1.892-1.807-3.783-2.713-5.675a4.224 4.224 0 00-.256-.447c-.097-.149-.104-.268.072-.366.379-.213.752-.439 1.135-.646.268-.145.369-.104.506.178.578 1.191 1.148 2.385 1.731 3.574.445.908.905 1.811 1.356 2.715.044.087.07.182.121.313-.057.072-.108.191-.195.238zM14.46 19.346c.434.021.965.652.638 1.172-.165.262-.366.51-.59.726-.53.507-1.078.996-1.629 1.479-.248.217-.526.185-.769-.059-.347-.35-.363-.873.011-1.266.449-.473.934-.908 1.403-1.357.168-.159.332-.323.515-.464.127-.097.279-.156.421-.231"/><path d="M14.46 19.346c.434.021.965.652.638 1.172-.165.262-.366.51-.59.726-.53.507-1.078.996-1.629 1.479-.248.217-.526.185-.769-.059-.347-.35-.363-.873.011-1.266.449-.473.934-.908 1.403-1.357.168-.159.332-.323.515-.464.127-.097.279-.156.421-.231zM10.138 20.313c.121-.23.186-.471.336-.625a40.906 40.906 0 011.538-1.463c.175-.16.397-.129.604.039.334.271.42.76.168 1.163a4.283 4.283 0 01-.561.688c-.321.329-.663.642-1.003.952-.246.229-.524.227-.726-.043-.15-.204-.232-.46-.356-.711"/><path d="M10.138 20.313c.121-.23.186-.471.336-.625a40.906 40.906 0 011.538-1.463c.175-.16.397-.129.604.039.334.271.42.76.168 1.163a4.283 4.283 0 01-.561.688c-.321.329-.663.642-1.003.952-.246.229-.524.227-.726-.043-.15-.204-.232-.46-.356-.711zM8.079 19.154c-.023-.399.113-.656.377-.853l.18-.13c.369-.273.488-.273.853-.005.288.214.39.544.259.875a1.39 1.39 0 01-.726.771c-.446.207-.898-.06-.941-.555-.006-.054-.002-.112-.002-.103"/><path d="M8.079 19.154c-.023-.399.113-.656.377-.853l.18-.13c.369-.273.488-.273.853-.005.288.214.39.544.259.875a1.39 1.39 0 01-.726.771c-.446.207-.898-.06-.941-.555-.006-.054-.002-.112-.002-.103zM14.865 24.125c-.531-.051-.904-.698-.6-1.115.345-.468.748-.894 1.143-1.322a.42.42 0 01.564-.072c.272.17.469.402.432.744a.902.902 0 01-.168.455c-.333.404-.686.795-1.045 1.174-.074.077-.216.092-.326.136"/><path d="M14.865 24.125c-.531-.051-.904-.698-.6-1.115.345-.468.748-.894 1.143-1.322a.42.42 0 01.564-.072c.272.17.469.402.432.744a.902.902 0 01-.168.455c-.333.404-.686.795-1.045 1.174-.074.077-.216.092-.326.136z"/></symbol><symbol viewBox="0 0 30 30" id="hello" xmlns="http://www.w3.org/2000/svg"><path d="M27.787 15.39c-.441.08-.887.158-1.327.242-1.073.199-2.149.402-3.222.604-.014.002-.025 0-.059.003l-.238-1.255 4.606-.863.213 1.122c.005.023.017.046.025.07l.002.077zm-6.699-2.722l-.77-1.024c1.826-1.373 3.646-2.739 5.475-4.11l.771 1.024c-1.826 1.369-3.645 2.735-5.476 4.11M18.234 9.27l-1.185-.5c.646-1.522 1.283-3.034 1.929-4.562.395.166.78.33 1.182.498-.64 1.522-1.279 3.035-1.926 4.564M23.9 20.111c-.043-.385-.219-.709-.448-1.01L15.13 8.208c-.362-.473-.71-.961-1.098-1.412-.457-.531-1.044-.74-1.736-.531-.474.142-.789.48-1.037.894-2.739 4.567-5.477 9.135-8.22 13.699-.261.437-.439.892-.479 1.398-.06.781.092 1.512.56 2.155.226.313.452.626.694.926.733.901 1.694 1.278 2.836 1.151.392-.043.771-.191 1.156-.295.221-.061.439-.127.664-.191.135.258.256.51.396.75.099.17.2.346.339.482.713.699 1.581.924 2.536.699 1.79-.42 3.569-.877 5.354-1.32.482-.121.889-.37 1.16-.795.387-.604.374-1.231.07-1.862-.113-.235-.247-.461-.379-.703l.146-.046 4.223-1.225c.301-.088.604-.168.865-.353.531-.367.791-.865.72-1.518m-7.061 5.243c-.217.065-.438.114-.659.168-1.556.388-3.111.772-4.666 1.158a1.583 1.583 0 01-.912-.037c-.278-.095-.504-.252-.629-.531-.07-.154-.158-.305-.244-.473.418-.123.82-.24 1.224-.356 1.868-.542 3.735-1.082 5.604-1.63.105-.029.148-.008.196.088.12.236.252.468.379.699.022.043.046.084.065.127.16.363.024.673-.358.787m5.617-4.781c-.093.052-.194.09-.296.118-1.977.576-3.95 1.148-5.926 1.723L6.73 25.173c-.679.196-1.487-.075-1.912-.637l-.595-.793a2.347 2.347 0 01-.142-.209c-.18-.298-.252-.589-.252-.976a1.768 1.768 0 01.266-.965c2.748-4.576 5.494-9.154 8.241-13.732.048-.082.097-.163.157-.234.16-.189.341-.203.523-.036.064.06.123.132.178.202 2.734 3.58 5.47 7.16 8.203 10.74.348.452.694.905 1.039 1.36.06.078.114.162.153.25.087.189.043.33-.133.43"/></symbol><symbol viewBox="0 0 24 24" id="inst" xmlns="http://www.w3.org/2000/svg"><path d="M12 2.163c3.204 0 3.584.012 4.85.07 3.252.148 4.771 1.691 4.919 4.919.058 1.265.069 1.645.069 4.849 0 3.205-.012 3.584-.069 4.849-.149 3.225-1.664 4.771-4.919 4.919-1.266.058-1.644.07-4.85.07-3.204 0-3.584-.012-4.849-.07-3.26-.149-4.771-1.699-4.919-4.92-.058-1.265-.07-1.644-.07-4.849 0-3.204.013-3.583.07-4.849.149-3.227 1.664-4.771 4.919-4.919 1.266-.057 1.645-.069 4.849-.069zM12 0C8.741 0 8.333.014 7.053.072 2.695.272.273 2.69.073 7.052.014 8.333 0 8.741 0 12c0 3.259.014 3.668.072 4.948.2 4.358 2.618 6.78 6.98 6.98C8.333 23.986 8.741 24 12 24c3.259 0 3.668-.014 4.948-.072 4.354-.2 6.782-2.618 6.979-6.98.059-1.28.073-1.689.073-4.948 0-3.259-.014-3.667-.072-4.947-.196-4.354-2.617-6.78-6.979-6.98C15.668.014 15.259 0 12 0zm0 5.838a6.162 6.162 0 100 12.324 6.162 6.162 0 000-12.324zM12 16a4 4 0 110-8 4 4 0 010 8zm6.406-11.845a1.44 1.44 0 100 2.881 1.44 1.44 0 000-2.881z"/></symbol><symbol viewBox="0 0 23 23" id="insta" xmlns="http://www.w3.org/2000/svg"><g clip-path="url(#sclip0_588_11438)"><path d="M22.978 6.762c-.054-1.222-.252-2.062-.535-2.79a5.613 5.613 0 00-1.33-2.04A5.661 5.661 0 0019.078.607c-.733-.284-1.568-.481-2.79-.535C15.056.014 14.665 0 11.543 0 8.42 0 8.029.014 6.803.067 5.58.121 4.74.32 4.013.602a5.612 5.612 0 00-2.04 1.33A5.663 5.663 0 00.647 3.967C.364 4.7.167 5.535.112 6.757.054 7.99.041 8.38.041 11.503s.013 3.514.067 4.74c.054 1.223.252 2.063.535 2.79a5.672 5.672 0 001.33 2.04 5.66 5.66 0 002.035 1.326c.732.283 1.568.48 2.79.535 1.227.054 1.618.067 4.74.067 3.123 0 3.514-.013 4.74-.067 1.223-.054 2.063-.252 2.79-.535a5.883 5.883 0 003.366-3.365c.283-.733.48-1.569.535-2.79.053-1.227.067-1.618.067-4.74 0-3.123-.005-3.514-.058-4.74zm-2.072 9.39c-.05 1.124-.238 1.73-.395 2.135a3.815 3.815 0 01-2.184 2.184c-.404.157-1.015.345-2.134.395-1.213.054-1.577.067-4.646.067-3.068 0-3.437-.013-4.646-.067-1.123-.05-1.73-.238-2.134-.395a3.54 3.54 0 01-1.32-.859 3.575 3.575 0 01-.859-1.32c-.157-.405-.346-1.016-.395-2.135-.054-1.213-.068-1.577-.068-4.646s.014-3.437.068-4.646c.05-1.123.238-1.73.395-2.134.184-.499.476-.952.863-1.32a3.57 3.57 0 011.32-.859c.405-.157 1.016-.346 2.135-.395 1.213-.054 1.577-.068 4.646-.068 3.073 0 3.437.014 4.646.068 1.123.05 1.73.238 2.134.395.498.184.952.476 1.32.858.383.373.675.822.859 1.321.157.405.346 1.016.395 2.134.054 1.214.068 1.577.068 4.646s-.014 3.428-.068 4.642z"/><path d="M11.543 5.594a5.91 5.91 0 00-5.909 5.908 5.91 5.91 0 005.909 5.908 5.91 5.91 0 005.908-5.908 5.91 5.91 0 00-5.908-5.908zm0 9.74a3.833 3.833 0 11.001-7.666 3.833 3.833 0 01-.001 7.667zm7.521-9.974a1.38 1.38 0 11-2.759 0 1.38 1.38 0 012.759 0z"/></g><defs><clipPath id="sclip0_588_11438"><path d="M0 0h23v23H0z"/></clipPath></defs></symbol><symbol viewBox="0 0 9 12" id="play" xmlns="http://www.w3.org/2000/svg"><path d="M9 6l-9 5.196V.804L9 6z"/></symbol><symbol viewBox="0 0 1000 1000" id="play-ico" xmlns="http://www.w3.org/2000/svg"><path d="M68.2 936.1V65.3c0-40.5 41.9-70.6 83.3-46.9 33.2 19 696.1 401.8 752.7 434.5 37.2 21.5 36.5 72.8 0 94.3C863.4 571.3 198 956 149.8 982.8c-35.3 19.5-81.6-2.1-81.6-46.7z"/></symbol><symbol viewBox="0 0 512 512" id="telegram" xmlns="http://www.w3.org/2000/svg"><path d="M477.805 102.98l-67.327 317.516c-5.08 22.41-18.326 27.984-37.15 17.431l-102.585-75.596-49.497 47.607c-5.477 5.478-10.06 10.061-20.617 10.061l7.37-104.479 190.129-171.805c8.268-7.37-1.792-11.454-12.848-4.083L150.233 287.633l-101.19-31.672c-22.011-6.873-22.408-22.012 4.581-32.568L449.419 70.911c18.325-6.872 34.36 4.082 28.386 32.069z"/></symbol></svg>