<svg width="88" height="90" viewBox="0 0 88 90" fill="none" xmlns="http://www.w3.org/2000/svg">
<g opacity="0.3">
<path d="M42.5682 49.2873V46.4179H45.4054V49.2873H42.5682ZM45.4046 40.6807H42.5674V43.5501H45.4046V40.6807ZM39.7311 43.5493V46.4187H42.5682V43.5493H39.7311ZM48.2418 46.4187V43.5493H45.4046V46.4187H48.2418ZM42.5682 17.7285H45.4054V14.8591H42.5682V17.7285ZM45.4046 9.12109H42.5674V11.9905H45.4046V9.12109ZM42.5682 11.9905H39.7311V14.8599H42.5682V11.9905ZM48.2418 14.8591V11.9897H45.4046V14.8591H48.2418ZM79.446 49.2873H82.2831V46.4179H79.446V49.2873ZM82.2831 40.6807H79.446V43.5501H82.2831V40.6807ZM76.6096 43.5493V46.4187H79.4468V43.5493H76.6096ZM82.2831 43.5493V46.4187H85.1203V43.5493H82.2831ZM5.68972 49.2873H8.52691V46.4179H5.68972V49.2873ZM8.5261 40.6807H5.68972V43.5501H8.52691V40.6807H8.5261ZM2.85254 43.5493V46.4187H5.68972V43.5493H2.85254ZM11.3633 43.5493H8.5261V46.4187H11.3633V43.5493ZM42.5682 80.8469H45.4054V77.9774H42.5682V80.8469ZM45.4046 72.2394H42.5674V75.1088H45.4046V72.2394ZM39.7311 75.1088V77.9782H42.5682V75.1088H39.7311ZM45.4046 77.9774H48.2418V75.108H45.4046V77.9774ZM48.2418 20.5971H45.4046V23.4666V26.336V29.2054V32.0749V34.9443V37.8137H48.2418V34.9443H51.079V32.0749H53.9162V29.2054H56.7534V26.3352H59.5905V23.4658V20.5963V17.7269V14.8575H56.7517V11.988H53.9145V14.8575H51.0774V17.7269H48.2402V20.5971H48.2418ZM31.2211 29.2046H34.0583V32.074H36.8955V34.9435H39.7327V37.8129H42.5699V34.9435V32.074V29.2046V26.3352V23.4658V20.5963H39.7327V17.7269H36.8947V14.8575H34.0575V11.988H31.2203V14.8575H28.3831V17.7269V20.5963V23.4658V26.3352H31.2203V29.2046H31.2211ZM56.7517 60.7633H53.9145V57.8939H51.0774V55.0245H48.2402V52.1551H45.403V55.0245V57.8939V60.7633V63.6328V66.5022V69.3716H48.2402V72.241H51.0774V75.1105H53.9145V77.9799H56.7517V75.1105H59.5889V72.241V69.3716V66.5022V63.6328H56.7517V60.7633ZM39.7311 69.3708H42.5682V66.5014V63.6328V60.7633V57.8939V55.0245V52.1551H39.7311V55.0245H36.8947V57.8939H34.0575V60.7633H31.2203V63.6328H28.3831V66.5022V69.3716V72.241V75.1105H31.2203V77.9799H34.0575V75.1105H36.8947V72.241H39.7319V69.3708H39.7311ZM14.1997 37.8112H17.0368V40.6807H19.874V43.5501H22.7112H25.5484H28.3856H31.2228H34.0599H36.8971V40.6807H34.0599V37.8112H31.2228V34.9418H28.3856V32.0724H25.5484V29.203H22.7112H19.8732H17.036H14.1988V32.0724H11.3617V34.9418H14.1988V37.8112H14.1997ZM28.3839 55.0253H31.2211V52.1559H34.0583V49.2865H36.8955V46.417H34.0583H31.2211H28.3839H25.5468H22.7096H19.8732V49.2865H17.036V52.1559H14.1988V55.0253H11.3617V57.8947H14.1988V60.7642H17.036H19.8732H22.7104H25.5476V57.8947H28.3848V55.0253H28.3839ZM59.5889 34.9426H56.7517V37.8121H53.9145V40.6815H51.0774V43.5509H53.9145H56.7517H59.5889H62.4261H65.2633H68.1005V40.6815H70.9377V37.8121H73.7748V34.9426H76.612V32.0732H73.7748V29.2038H70.9377H68.1005H65.2633H62.4261V32.0732H59.5889V34.9426ZM73.7724 52.1567H70.9352V49.2873H68.098V46.4179H65.2608H62.4237H59.5865H56.7517H53.9145H51.0774V49.2873H53.9145V52.1567H56.7517V55.0261H59.5889V57.8956H62.4261V60.765H65.2633H68.1005H70.9377H73.7748V57.8956H76.612V55.0261H73.7748V52.1567H73.7724Z" fill="black"/>
</g>
</svg>
