<svg width="176" height="151" viewBox="0 0 176 151" fill="none" xmlns="http://www.w3.org/2000/svg">
<path d="M84.5799 84.5808V78.5438H90.6169V84.5808H84.5799ZM90.6152 66.4732H84.5781V72.5102H90.6152V66.4732ZM78.5428 72.5085V78.5455H84.5799V72.5085H78.5428ZM96.6522 78.5455V72.5085H90.6152V78.5455H96.6522ZM84.5799 18.1838H90.6169V12.1468H84.5799V18.1838ZM90.6152 0.0744629H84.5781V6.1115H90.6152V0.0744629ZM84.5799 6.1115H78.5428V12.1485H84.5799V6.1115ZM96.6522 12.1468V6.10976H90.6152V12.1468H96.6522ZM163.049 84.5808H169.086V78.5438H163.049V84.5808ZM169.086 66.4732H163.049V72.5102H169.086V66.4732ZM157.014 72.5085V78.5455H163.051V72.5085H157.014ZM169.086 72.5085V78.5455H175.123V72.5085H169.086ZM6.10881 84.5808H12.1458V78.5438H6.10881V84.5808ZM12.1441 66.4732H6.10881V72.5102H12.1458V66.4732H12.1441ZM0.0717773 72.5085V78.5455H6.10881V72.5085H0.0717773ZM18.1812 72.5085H12.1441V78.5455H18.1812V72.5085ZM84.5799 150.979H90.6169V144.942H84.5799V150.979ZM90.6152 132.87H84.5781V138.907H90.6152V132.87ZM78.5428 138.907V144.944H84.5799V138.907H78.5428ZM90.6152 144.942H96.6522V138.905H90.6152V144.942ZM96.6522 24.2191H90.6152V30.2562V36.2932V42.3302V48.3673V54.4043V60.4413H96.6522V54.4043H102.689V48.3673H108.726V42.3302H114.763V36.2915H120.8V30.2544V24.2174V18.1804V12.1433H114.76V6.1063H108.723V12.1433H102.686V18.1804H96.6487V24.2191H96.6522ZM60.4352 42.3285H66.4722V48.3655H72.5093V54.4026H78.5463V60.4396H84.5833V54.4026V48.3655V42.3285V36.2915V30.2544V24.2174H78.5463V18.1804H72.5075V12.1433H66.4705V6.1063H60.4335V12.1433H54.3964V18.1804V24.2174V30.2544V36.2915H60.4335V42.3285H60.4352ZM114.76 108.725H108.723V102.688H102.686V96.6514H96.6487V90.6144H90.6117V96.6514V102.688V108.725V114.762V120.8V126.837H96.6487V132.874H102.686V138.911H108.723V144.948H114.76V138.911H120.797V132.874V126.837V120.8V114.762H114.76V108.725ZM78.5428 126.835H84.5799V120.798V114.762V108.725V102.688V96.6514V90.6144H78.5428V96.6514H72.5075V102.688H66.4705V108.725H60.4335V114.762H54.3964V120.8V126.837V132.874V138.911H60.4335V144.948H66.4705V138.911H72.5075V132.874H78.5446V126.835H78.5428ZM24.2164 60.4361H30.2535V66.4732H36.2905V72.5102H42.3276H48.3646H54.4016H60.4387H66.4757H72.5127V66.4732H66.4757V60.4361H60.4387V54.3991H54.4016V48.3621H48.3646V42.325H42.3276H36.2888H30.2518H24.2147V48.3621H18.1777V54.3991H24.2147V60.4361H24.2164ZM54.3982 96.6531H60.4352V90.6161H66.4722V84.5791H72.5093V78.542H66.4722H60.4352H54.3982H48.3611H42.3241H36.2888V84.5791H30.2518V90.6161H24.2147V96.6531H18.1777V102.69H24.2147V108.727H30.2518H36.2888H42.3258H48.3629V102.69H54.3999V96.6531H54.3982ZM120.797 54.4008H114.76V60.4379H108.723V66.4749H102.686V72.5119H108.723H114.76H120.797H126.834H132.871H138.908V66.4749H144.945V60.4379H150.982V54.4008H157.019V48.3638H150.982V42.3268H144.945H138.908H132.871H126.834V48.3638H120.797V54.4008ZM150.977 90.6178H144.94V84.5808H138.903V78.5438H132.866H126.829H120.792H114.76H108.723H102.686V84.5808H108.723V90.6178H114.76V96.6549H120.797V102.692H126.834V108.729H132.871H138.908H144.945H150.982V102.692H157.019V96.6549H150.982V90.6178H150.977Z" fill="#649393"/>
</svg>
