<svg width="257" height="304" viewBox="0 0 257 304" fill="none" xmlns="http://www.w3.org/2000/svg">
<path d="M170.436 169.893V157.761H182.567V169.893H170.436ZM182.564 133.505H170.432V145.637H182.564V133.505ZM158.304 145.633V157.765H170.436V145.633H158.304ZM194.695 157.765V145.633H182.564V157.765H194.695ZM170.436 36.4659H182.567V24.3342H170.436V36.4659ZM182.564 0.0744629H170.432V12.2061H182.564V0.0744629ZM170.436 12.2061H158.304V24.3377H170.436V12.2061ZM194.695 24.3342V12.2026H182.564V24.3342H194.695ZM328.123 169.893H340.254V157.761H328.123V169.893ZM340.254 133.505H328.123V145.637H340.254V133.505ZM315.994 145.633V157.765H328.126V145.633H315.994ZM340.254 145.633V157.765H352.386V145.633H340.254ZM12.7454 169.893H24.877V157.761H12.7454V169.893ZM24.8736 133.505H12.7454V145.637H24.877V133.505H24.8736ZM0.61377 145.633V157.765H12.7454V145.633H0.61377ZM37.0052 145.633H24.8736V157.765H37.0052V145.633ZM170.436 303.323H182.567V291.192H170.436V303.323ZM182.564 266.932H170.432V279.064H182.564V266.932ZM158.304 279.064V291.195H170.436V279.064H158.304ZM182.564 291.192H194.695V279.06H182.564V291.192ZM194.695 48.594H182.564V60.7256V72.8573V84.9889V97.1205V109.252V121.384H194.695V109.252H206.827V97.1205H218.959V84.9889H231.09V72.8538H243.222V60.7222V48.5905V36.4589V24.3273H231.083V12.1956H218.952V24.3273H206.82V36.4589H194.689V48.594H194.695ZM121.916 84.9854H134.048V97.117H146.179V109.249H158.311V121.38H170.443V109.249V97.117V84.9854V72.8538V60.7222V48.5905H158.311V36.4589H146.176V24.3273H134.044V12.1956H121.913V24.3273H109.781V36.4589V48.5905V60.7222V72.8538H121.913V84.9854H121.916ZM231.083 218.412H218.952V206.281H206.82V194.149H194.689V182.018H182.557V194.149V206.281V218.412V230.544V242.676V254.807H194.689V266.939H206.82V279.071H218.952V291.202H231.083V279.071H243.215V266.939V254.807V242.676V230.544H231.083V218.412ZM158.304 254.804H170.436V242.672V230.544V218.412V206.281V194.149V182.018H158.304V194.149H146.176V206.281H134.044V218.412H121.913V230.544H109.781V242.676V254.807V266.939V279.071H121.913V291.202H134.044V279.071H146.176V266.939H158.308V254.804H158.304ZM49.1333 121.373H61.265V133.505H73.3966V145.637H85.5282H97.6598H109.791H121.923H134.055H146.186V133.505H134.055V121.373H121.923V109.242H109.791V97.1101H97.6598V84.9784H85.5282H73.3931H61.2615H49.1298V97.1101H36.9982V109.242H49.1298V121.373H49.1333ZM109.785 194.153H121.916V182.021H134.048V169.889H146.179V157.758H134.048H121.916H109.785H97.6529H85.5212H73.3931V169.889H61.2615V182.021H49.1298V194.153H36.9982V206.284H49.1298V218.416H61.2615H73.3931H85.5247H97.6564V206.284H109.788V194.153H109.785ZM243.215 109.245H231.083V121.377H218.952V133.508H206.82V145.64H218.952H231.083H243.215H255.347H267.478H279.61V133.508H291.742V121.377H303.873V109.245H316.005V97.1136H303.873V84.9819H291.742H279.61H267.478H255.347V97.1136H243.215V109.245ZM303.863 182.025H291.731V169.893H279.599V157.761H267.468H255.336H243.205H231.083H218.952H206.82V169.893H218.952V182.025H231.083V194.156H243.215V206.288H255.347V218.419H267.478H279.61H291.742H303.873V206.288H316.005V194.156H303.873V182.025H303.863Z" fill="#649393"/>
</svg>
