<svg width="192" height="339" viewBox="0 0 192 339" fill="none" xmlns="http://www.w3.org/2000/svg">
<g opacity="0.3">
<path d="M163.746 186.239V175.342H174.643V186.239H163.746ZM174.64 153.553H163.743V164.451H174.64V153.553ZM152.849 164.447V175.345H163.746V164.447H152.849ZM185.538 175.345V164.447H174.64V175.345H185.538ZM163.746 66.3867H174.643V55.4894H163.746V66.3867ZM174.64 33.6978H163.743V44.5951H174.64V33.6978ZM163.746 44.5951H152.849V55.4925H163.746V44.5951ZM185.538 55.4894V44.592H174.64V55.4894H185.538ZM305.39 186.239H316.287V175.342H305.39V186.239ZM316.287 153.553H305.39V164.451H316.287V153.553ZM294.496 164.447V175.345H305.393V164.447H294.496ZM316.287 164.447V175.345H327.185V164.447H316.287ZM22.099 186.239H32.9964V175.342H22.099V186.239ZM32.9933 153.553H22.099V164.451H32.9964V153.553H32.9933ZM11.2017 164.447V175.345H22.099V164.447H11.2017ZM43.8906 164.447H32.9933V175.345H43.8906V164.447ZM163.746 306.094H174.643V295.197H163.746V306.094ZM174.64 273.405H163.743V284.303H174.64V273.405ZM152.849 284.303V295.2H163.746V284.303H152.849ZM174.64 295.197H185.538V284.3H174.64V295.197ZM185.538 77.281H174.64V88.1783V99.0757V109.973V120.87V131.768V142.665H185.538V131.768H196.435V120.87H207.332V109.973H218.23V99.0726H229.127V88.1752V77.2778V66.3805V55.4831H218.224V44.5857H207.326V55.4831H196.429V66.3805H185.531V77.281H185.538ZM120.163 109.97H131.06V120.867H141.958V131.765H152.855V142.662H163.752V131.765V120.867V109.97V99.0726V88.1752V77.2778H152.855V66.3805H141.954V55.4831H131.057V44.5857H120.16V55.4831H109.262V66.3805V77.2778V88.1752V99.0726H120.16V109.97H120.163ZM218.224 229.822H207.326V218.925H196.429V208.028H185.531V197.13H174.634V208.028V218.925V229.822V240.72V251.617V262.514H185.531V273.412H196.429V284.309H207.326V295.206H218.224V284.309H229.121V273.412V262.514V251.617V240.72H218.224V229.822ZM152.849 262.511H163.746V251.614V240.72V229.822V218.925V208.028V197.13H152.849V208.028H141.954V218.925H131.057V229.822H120.16V240.72H109.262V251.617V262.514V273.412V284.309H120.16V295.206H131.057V284.309H141.954V273.412H152.852V262.511H152.849ZM54.7849 142.656H65.6823V153.553H76.5796V164.451H87.477H98.3744H109.272H120.169H131.066H141.964V153.553H131.066V142.656H120.169V131.758H109.272V120.861H98.3744V109.964H87.477H76.5765H65.6791H54.7818V120.861H43.8844V131.758H54.7818V142.656H54.7849ZM109.265 208.031H120.163V197.133H131.06V186.236H141.958V175.339H131.06H120.163H109.265H98.3681H87.4707H76.5765V186.236H65.6791V197.133H54.7818V208.031H43.8844V218.928H54.7818V229.825H65.6791H76.5765H87.4739H98.3712V218.928H109.269V208.031H109.265ZM229.121 131.762H218.224V142.659H207.326V153.556H196.429V164.454H207.326H218.224H229.121H240.018H250.916H261.813V153.556H272.71V142.659H283.608V131.762H294.505V120.864H283.608V109.967H272.71H261.813H250.916H240.018V120.864H229.121V131.762ZM283.598 197.136H272.701V186.239H261.804V175.342H250.906H240.009H229.112H218.224H207.326H196.429V186.239H207.326V197.136H218.224V208.034H229.121V218.931H240.018V229.829H250.916H261.813H272.71H283.608V218.931H294.505V208.034H283.608V197.136H283.598Z" fill="black"/>
</g>
</svg>
