<svg width="158" height="158" viewBox="0 0 158 158" fill="none" xmlns="http://www.w3.org/2000/svg">
<g opacity="0.3" clip-path="url(#clip0_703_1025)">
<path d="M78.6165 74.5813L74.0317 69.9966L69.3719 74.6565L73.9566 79.2412L78.6165 74.5813Z" fill="#020202"/>
<path d="M83.5019 42.1876L88.0866 46.7723L83.4267 51.4322L88.0114 56.0169L83.3515 60.6768L87.9362 65.2615L92.5961 60.6016L97.256 55.9418L101.916 51.2819L97.3312 46.6972L101.991 42.0373L97.4063 37.4526L102.066 32.7927L97.4815 28.208L102.141 23.5481L97.5566 18.9634L92.8968 23.6233L88.2369 28.2831L83.577 32.943L88.1617 37.5277L83.5019 42.1876Z" fill="#020202"/>
<path d="M83.5769 32.9431L78.9922 28.3584L74.3323 33.0183L78.917 37.603L83.5769 32.9431Z" fill="#020202"/>
<path d="M36.9783 79.5418L32.3936 74.957L27.7337 79.6169L32.3184 84.2016L36.9783 79.5418Z" fill="#020202"/>
<path d="M88.312 19.0386L83.7273 14.4539L79.0674 19.1137L74.4827 14.529L69.8228 19.1889L74.4075 23.7736L78.9923 28.3583L83.6521 23.6984L88.312 19.0386Z" fill="#020202"/>
<path d="M18.5642 70.4473L13.9043 75.1071L18.489 79.6919L13.8292 84.3517L18.4139 88.9365L23.0738 84.2766L27.7336 79.6167L23.1489 75.032L18.5642 70.4473Z" fill="#020202"/>
<path d="M22.9987 93.5215L18.3388 98.1814L22.9236 102.766L27.5834 98.1063L32.1682 102.691L36.828 98.0311L41.4127 102.616L46.0726 97.9559L50.6573 102.541L55.3172 97.8808L59.9771 93.2209L64.637 88.561L60.0522 83.9763L55.3924 88.6362L50.8077 84.0515L46.1478 88.7114L41.5631 84.1266L36.9032 88.7865L32.3185 84.2018L27.6586 88.8617L22.9987 93.5215Z" fill="#020202"/>
<path d="M65.1631 23.8489L60.5784 19.2642L55.9185 23.924L60.5032 28.5088L55.8433 33.1686L60.428 37.7533L55.7682 42.4132L60.3529 46.9979L55.693 51.6578L60.2777 56.2425L64.8624 60.8272L69.4472 65.412L74.107 60.7521L69.5223 56.1674L74.1822 51.5075L69.5975 46.9228L74.2574 42.2629L69.6726 37.6782L74.3325 33.0183L69.7478 28.4336L65.1631 23.8489Z" fill="#020202"/>
<path d="M18.6393 61.203L23.224 65.7877L27.8087 70.3724L32.3935 74.9571L37.0533 70.2973L41.638 74.882L46.2979 70.2221L50.8826 74.8068L55.5425 70.1469L60.1272 74.7316L64.7871 70.0718L60.2024 65.4871L55.6177 60.9023L51.033 56.3176L46.3731 60.9775L41.7884 56.3928L37.1285 61.0527L32.5438 56.4679L27.8839 61.1278L23.2992 56.5431L18.6393 61.203Z" fill="#020202"/>
<path d="M78.5413 83.8259L73.9565 79.2412L69.2967 83.9011L73.8814 88.4858L78.5413 83.8259Z" fill="#020202"/>
<path d="M87.8611 74.5061L83.2764 69.9214L78.6165 74.5813L83.2012 79.166L87.8611 74.5061Z" fill="#020202"/>
<path d="M87.7859 83.7507L83.2012 79.166L78.5413 83.8259L83.126 88.4106L87.7859 83.7507Z" fill="#020202"/>
<path d="M134.159 64.8859L138.819 60.2261L134.234 55.6414L129.574 60.3012L124.99 55.7165L120.33 60.3764L115.745 55.7917L111.085 60.4516L106.501 55.8668L101.841 60.5267L97.1808 65.1866L92.521 69.8465L97.1057 74.4312L101.766 69.7713L106.35 74.356L111.01 69.6961L115.595 74.2809L120.255 69.621L124.839 74.2057L129.499 69.5458L134.159 64.8859Z" fill="#020202"/>
<path d="M82.8254 125.389L78.2407 120.804L73.5809 125.464L78.1656 130.049L82.8254 125.389Z" fill="#020202"/>
<path d="M129.424 78.7903L124.839 74.2056L120.179 78.8654L124.764 83.4502L129.424 78.7903Z" fill="#020202"/>
<path d="M138.594 87.9594L143.253 83.2995L138.669 78.7148L143.329 74.0549L138.744 69.4702L134.084 74.1301L129.424 78.79L134.009 83.3747L138.594 87.9594Z" fill="#020202"/>
<path d="M68.8458 139.369L73.4305 143.953L78.0904 139.293L82.6751 143.878L87.335 139.218L82.7502 134.634L78.1655 130.049L73.5056 134.709L68.8458 139.369Z" fill="#020202"/>
<path d="M69.1465 102.39L73.8064 97.7302L69.2217 93.1455L64.5618 97.8054L59.9019 102.465L55.2421 107.125L59.8268 111.71L55.1669 116.37L59.7516 120.954L55.0917 125.614L59.6765 130.199L55.0166 134.859L59.6013 139.444L64.2612 134.784L68.921 130.124L73.5809 125.464L68.9962 120.879L73.6561 116.219L69.0714 111.635L73.7312 106.975L69.1465 102.39Z" fill="#020202"/>
<path d="M115.52 83.5251L110.86 88.185L106.275 83.6003L101.615 88.2601L97.0306 83.6754L92.3707 88.3353L96.9555 92.92L101.54 97.5047L106.125 102.089L110.785 97.4296L115.369 102.014L120.029 97.3544L124.614 101.939L129.274 97.2793L133.859 101.864L138.519 97.2041L133.934 92.6194L129.349 88.0347L124.764 83.45L120.105 88.1098L115.52 83.5251Z" fill="#020202"/>
<path d="M91.9948 134.558L96.5795 139.143L101.239 134.483L96.6546 129.898L101.315 125.238L96.7298 120.654L101.39 115.994L96.805 111.409L101.465 106.749L96.8801 102.165L92.2954 97.5798L87.7107 92.9951L83.0508 97.655L87.6355 102.24L82.9757 106.9L87.5604 111.484L82.9005 116.144L87.4852 120.729L82.8253 125.389L87.4101 129.973L91.9948 134.558Z" fill="#020202"/>
</g>
<defs>
<clipPath id="clip0_703_1025">
<rect width="110.224" height="112.031" fill="white" transform="translate(79.2178 0.624512) rotate(45)"/>
</clipPath>
</defs>
</svg>
