<svg width="79" height="104" viewBox="0 0 79 104" fill="none" xmlns="http://www.w3.org/2000/svg">
<path d="M58.529 57.779V53.6585H62.6496V57.779H58.529ZM62.6484 45.4197H58.5278V49.5403H62.6484V45.4197ZM54.4084 49.5391V53.6596H58.529V49.5391H54.4084ZM66.769 53.6596V49.5391H62.6484V53.6596H66.769ZM58.529 12.4599H62.6496V8.33932H58.529V12.4599ZM62.6484 0.0993652H58.5278V4.21993H62.6484V0.0993652ZM58.529 4.21993H54.4084V8.3405H58.529V4.21993ZM66.769 8.33932V4.21875H62.6484V8.33932H66.769ZM112.088 57.779H116.209V53.6585H112.088V57.779ZM116.209 45.4197H112.088V49.5403H116.209V45.4197ZM107.969 49.5391V53.6596H112.089V49.5391H107.969ZM116.209 49.5391V53.6596H120.329V49.5391H116.209ZM4.96871 57.779H9.08928V53.6585H4.96871V57.779ZM9.0881 45.4197H4.96871V49.5403H9.08928V45.4197H9.0881ZM0.848145 49.5391V53.6596H4.96871V49.5391H0.848145ZM13.2087 49.5391H9.0881V53.6596H13.2087V49.5391ZM58.529 103.099H62.6496V98.9788H58.529V103.099ZM62.6484 90.7388H58.5278V94.8594H62.6484V90.7388ZM54.4084 94.8594V98.98H58.529V94.8594H54.4084ZM62.6484 98.9788H66.769V94.8582H62.6484V98.9788ZM66.769 16.5793H62.6484V20.6998V24.8204V28.941V33.0615V37.1821V41.3027H66.769V37.1821H70.8895V33.0615H75.0101V28.941H79.1307V24.8192H83.2512V20.6987V16.5781V12.4575V8.33695H79.1283V4.21638H75.0077V8.33695H70.8872V12.4575H66.7666V16.5793H66.769ZM42.0491 28.9398H46.1697V33.0604H50.2902V37.1809H54.4108V41.3015H58.5314V37.1809V33.0604V28.9398V24.8192V20.6987V16.5781H54.4108V12.4575H50.2891V8.33695H46.1685V4.21638H42.0479V8.33695H37.9273V12.4575V16.5781V20.6987V24.8192H42.0479V28.9398H42.0491ZM79.1283 74.2589H75.0077V70.1384H70.8872V66.0178H66.7666V61.8972H62.646V66.0178V70.1384V74.2589V78.3795V82.5001V86.6206H66.7666V90.7412H70.8872V94.8618H75.0077V98.9823H79.1283V94.8618H83.2489V90.7412V86.6206V82.5001V78.3795H79.1283V74.2589ZM54.4084 86.6195H58.529V82.4989V78.3795V74.2589V70.1384V66.0178V61.8972H54.4084V66.0178H50.2891V70.1384H46.1685V74.2589H42.0479V78.3795H37.9273V82.5001V86.6206V90.7412V94.8618H42.0479V98.9823H46.1685V94.8618H50.2891V90.7412H54.4096V86.6195H54.4084ZM17.3281 41.2991H21.4486V45.4197H25.5692V49.5403H29.6898H33.8103H37.9309H42.0515H46.172H50.2926V45.4197H46.172V41.2991H42.0515V37.1786H37.9309V33.058H33.8103V28.9374H29.6898H25.568H21.4474H17.3269V33.058H13.2063V37.1786H17.3269V41.2991H17.3281ZM37.9285 66.019H42.0491V61.8984H46.1697V57.7779H50.2902V53.6573H46.1697H42.0491H37.9285H33.808H29.6874H25.568V57.7779H21.4474V61.8984H17.3269V66.019H13.2063V70.1395H17.3269V74.2601H21.4474H25.568H29.6886H33.8091V70.1395H37.9297V66.019H37.9285ZM83.2489 37.1797H79.1283V41.3003H75.0077V45.4209H70.8872V49.5414H75.0077H79.1283H83.2489H87.3694H91.49H95.6106V45.4209H99.7311V41.3003H103.852V37.1797H107.972V33.0592H103.852V28.9386H99.7311H95.6106H91.49H87.3694V33.0592H83.2489V37.1797ZM103.848 61.8996H99.7276V57.779H95.607V53.6585H91.4865H87.3659H83.2453H79.1283H75.0077H70.8872V57.779H75.0077V61.8996H79.1283V66.0202H83.2489V70.1407H87.3694V74.2613H91.49H95.6106H99.7311H103.852V70.1407H107.972V66.0202H103.852V61.8996H103.848Z" fill="#649393"/>
</svg>
