<svg width="139" height="187" viewBox="0 0 139 187" fill="none" xmlns="http://www.w3.org/2000/svg">
<g opacity="0.3" clip-path="url(#clip0_469_180)">
<path d="M42.1177 88.0132H31.353V98.9544H42.1177V88.0132Z" fill="#020202"/>
<path d="M9.82354 44.2486H20.5882V55.1898H31.353V66.131H42.1177V55.1898V44.2486V33.3074H31.353V22.3662H20.5882V11.4251H9.82354V0.483887H-0.941162V11.4251V22.3662V33.3074H9.82354V44.2486Z" fill="#020202"/>
<path d="M-0.941162 175.543V186.484H9.82354V175.543H20.5882V164.602H31.353V153.66H42.1177V142.719V131.778V120.837H31.353V131.778H20.5882V142.719H9.82354V153.66H-0.941162V164.602V175.543Z" fill="#020202"/>
<path d="M-33.2353 44.2485H-44V55.1897H-33.2353V66.1309H-22.4706V77.0721H-11.7059V88.0132H-0.941181H9.82352H20.5882V77.0721H9.82352V66.1309H-0.941181V55.1897H-11.7059V44.2485H-22.4706H-33.2353Z" fill="#020202"/>
<path d="M-44 142.719H-33.2353H-22.4706H-11.7059V131.778H-0.941181V120.837H9.82352V109.896H20.5882V98.9546H9.82352H-0.941181H-11.7059V109.896H-22.4706V120.837H-33.2353V131.778H-44V142.719Z" fill="#020202"/>
<path d="M52.8824 98.9546H42.1177V109.896H52.8824V98.9546Z" fill="#020202"/>
<path d="M52.8824 77.0723H42.1177V88.0135H52.8824V77.0723Z" fill="#020202"/>
<path d="M63.647 88.0132H52.8823V98.9544H63.647V88.0132Z" fill="#020202"/>
<path d="M95.9411 11.4251V0.483887H85.1764V11.4251H74.4117V22.3662H63.647V33.3074H52.8823V44.2486V55.1898V66.131H63.647V55.1898H74.4117V44.2486H85.1764V33.3074H95.9411V22.3662V11.4251Z" fill="#020202"/>
<path d="M106.706 142.719H95.9412V153.66H106.706V142.719Z" fill="#020202"/>
<path d="M106.706 33.3076H95.9412V44.2488H106.706V33.3076Z" fill="#020202"/>
<path d="M128.235 33.3077V22.3665H117.471V11.4253H106.706V22.3665V33.3077H117.471H128.235Z" fill="#020202"/>
<path d="M106.706 175.543H117.471V164.601H128.235V153.66H117.471H106.706V164.601V175.543Z" fill="#020202"/>
<path d="M63.647 131.778V120.837H52.8823V131.778V142.719V153.66H63.647V164.602H74.4117V175.543H85.1764V186.484H95.9411V175.543V164.602V153.66H85.1764V142.719H74.4117V131.778H63.647Z" fill="#020202"/>
<path d="M95.9413 55.1897V66.1309H85.1766V77.0721H74.4119V88.0132H85.1766H95.9413H106.706V77.0721H117.471V66.1309H128.235V55.1897H139V44.2485H128.235H117.471H106.706V55.1897H95.9413Z" fill="#020202"/>
<path d="M128.235 142.719H139V131.778H128.235V120.837H117.471V109.896H106.706V98.9546H95.9413H85.1766H74.4119V109.896H85.1766V120.837H95.9413V131.778H106.706V142.719H117.471H128.235Z" fill="#020202"/>
</g>
<defs>
<clipPath id="clip0_469_180">
<rect width="183" height="186" fill="white" transform="translate(-44 0.483887)"/>
</clipPath>
</defs>
</svg>
