<svg width="110" height="53" fill="none" xmlns="http://www.w3.org/2000/svg"><g clip-path="url('#clip0_2144_131')"><path d="M77.28 42.188h2.475v7.423H77.28v-7.423Zm-4.948-6.797h7.423v-2.474h-9.898v2.474h2.475Zm2.474-9.897h2.475v-2.475H69.857v2.475h4.949Zm-2.474 2.474h-2.475v-2.474h-2.474v7.423h2.474v-2.474H77.281v-2.475h-4.949Zm-14.743 4.95v-4.95h4.949v-2.474H57.59v-2.475h-2.474v2.475h-2.474v2.474h2.474v7.423h7.423v-2.474H57.59ZM44.712 15.752h7.266v2.422H42.29v4.844h4.844v4.845h-2.422V25.44H42.29v8.47h-2.422v3.624h-2.423v2.422h-2.422v9.689h2.422v2.422h-4.844V44.8H30.18V42.38h-2.422v2.422h-2.422v2.423h-2.423v2.422h2.423v2.422H20.49v-9.689h-2.422v-2.422h-2.422v-2.422h-2.422v-2.422h-2.422V32.69H8.379V18.157h2.423v4.844h2.422v2.422h2.422v2.422h4.844v-2.422h2.422v-2.422h3.625V20.58h3.625v-2.422h2.422V2.422h2.422V0h19.377v2.422h2.422v10.891h-12.11c.017.837.017 1.638.017 2.44ZM39.867 3.642h-2.422v2.422h2.422V3.642Zm22.671 38.546v-2.475h-2.474v4.949h-4.949v-4.949h-2.474v7.423h7.423v4.949h2.474v-4.949h2.475v-2.474h-2.475v-2.474Zm0-9.27h2.475v-2.475h-2.475v2.474Zm4.845 9.27v7.423h2.474v-7.423h-2.474Zm2.474 9.897h7.424v-2.474h-7.424v2.474Zm7.424-12.372h-7.424v2.474h7.424v-2.474Zm22.27-14.22h-2.475v9.899h2.475v-9.898Zm4.948 4.95v-4.95h-2.474v4.95h2.474Zm4.949 4.948v-9.897h-2.474v9.898h2.474Zm-2.474-12.372h-2.475v2.475h2.475v-2.475Zm-14.847 4.95h-7.423v2.474h7.423v2.474h-7.423v2.474h9.898v-9.897h-2.475v2.474Zm-9.898 2.474v2.474h2.475v-2.474h-2.475Zm9.898 9.27h-2.474v4.949h-4.95v-4.949H82.23v7.423h7.424v4.95h2.474v-4.95h2.475v-2.474h-2.475v-4.949ZM82.23 23.02v2.475h9.898v-2.475H82.23Zm-4.948 4.95h2.474v-2.475H77.28v2.474Zm24.744-4.95H99.55v2.475h2.475v-2.475Z" fill="#89D7D7"/></g><path fill="#FFE600" d="M0 15.538h10.842v3.552H0z"/><path fill="#1B3DF1" d="M0 11.986h10.842v3.552H0z"/><defs><clipPath id="clip0_2144_131"><path fill="#fff" transform="translate(8.38)" d="M0 0h101.289v53H0z"/></clipPath></defs></svg>